<svg xmlns="http://www.w3.org/2000/svg" viewBox="0 0 512 512" id="graphic-design"><path d="M38,492H91.946A7.776,7.776,0,0,0,100,484.324V464H412v20.324A7.776,7.776,0,0,0,420.054,492H474a7.73,7.73,0,0,0,8-7.676V427.03a8.025,8.025,0,0,0-8-8.03H455V93h19a8.025,8.025,0,0,0,8-8.03V27.676A7.73,7.73,0,0,0,474,20H420.054A7.776,7.776,0,0,0,412,27.676V48H100V27.676A7.776,7.776,0,0,0,91.946,20H38a7.73,7.73,0,0,0-8,7.676V84.97A8.025,8.025,0,0,0,38,93H57V419H38a8.025,8.025,0,0,0-8,8.03v57.294A7.73,7.73,0,0,0,38,492Zm428-16H428V435h38ZM428,36h38V77H428ZM46,36H84V77H46ZM73,93H91.946A8.072,8.072,0,0,0,100,84.97V64H412V84.97A8.072,8.072,0,0,0,420.054,93H439V419H420.054A8.072,8.072,0,0,0,412,427.03V448H100V427.03A8.072,8.072,0,0,0,91.946,419H73ZM46,435H84v41H46Z"></path><path d="M181.052,360H172.14a8,8,0,0,0,0,16h13.339L199.3,426.044a8.08,8.08,0,0,0,7.71,5.956H308.148a8.08,8.08,0,0,0,7.748-6.1L328.7,376H339.86a8,8,0,0,0,0-16h-7.053l24.175-93.988a7.864,7.864,0,0,0-.678-5.683L263.071,84.209a8,8,0,0,0-14.142.019L155.7,260.377a7.749,7.749,0,0,0-.64,5.776Zm120.892,56H213.1l-11.019-40h110.1ZM256,228.083a14.124,14.124,0,1,1-14.124,14.124A14.14,14.14,0,0,1,256,228.083Zm-8-107.891V213.17a30.124,30.124,0,1,0,16,0V120.192l76.715,144.837L316.287,360H197.653l-26.328-95.047Z"></path></svg>